<svg width="611.98" height="611.981" xmlns="http://www.w3.org/2000/svg">

 <g>
  <title>background</title>
  <rect fill="none" id="canvas_background" height="602" width="802" y="-1" x="-1"/>
 </g>
 <g>
  <title>Layer 1</title>
  <g transform="rotate(89.552, 304.488, 310.492)" id="svg_1">
   <g id="svg_2">
    <g id="Forward">
     <g id="svg_3">
      <path id="svg_4" d="m593.02406,283.39303l-224.5148,-228.8087c-14.63899,-14.92786 -38.39396,-14.92786 -53.03295,0c-14.63801,14.92786 -14.63801,39.13423 0,54.06209l160.61002,163.69344l-433.64286,0c-20.68466,0 -37.43773,17.0848 -37.43773,38.16007c0,21.07328 16.75307,38.15807 37.43773,38.15807l433.64286,0l-160.60807,163.69544c-14.63801,14.92886 -14.63801,39.13323 0,54.04313c14.63899,14.92886 38.39396,14.92886 53.03295,0l224.49523,-228.8077c7.3376,-7.48389 10.9883,-17.27643 10.96774,-27.08794c0.03915,-9.8135 -3.61155,-19.62501 -10.95013,-27.1079z"/>
     </g>
    </g>
   </g>
  </g>
  <g id="svg_5"/>
  <g id="svg_6"/>
  <g id="svg_7"/>
  <g id="svg_8"/>
  <g id="svg_9"/>
  <g id="svg_10"/>
  <g id="svg_11"/>
  <g id="svg_12"/>
  <g id="svg_13"/>
  <g id="svg_14"/>
  <g id="svg_15"/>
  <g id="svg_16"/>
  <g id="svg_17"/>
  <g id="svg_18"/>
  <g id="svg_19"/>
 </g>
</svg>